<?xml version="1.0" encoding="UTF-8"?>
<svg width="76px" height="76px" viewBox="0 0 76 76" version="1.1" xmlns="http://www.w3.org/2000/svg" xmlns:xlink="http://www.w3.org/1999/xlink">
    <!-- Generator: Sketch 45.2 (43514) - http://www.bohemiancoding.com/sketch -->
    <title>icon/76x76/clock</title>
    <desc>Created with Sketch.</desc>
    <defs>
        <rect id="path-1" x="0" y="0" width="646" height="2095"></rect>
        <circle id="path-2" cx="38" cy="38" r="24"></circle>
        <circle id="path-3" cx="38" cy="38" r="5"></circle>
    </defs>
    <g id="Symbols" stroke="none" stroke-width="1" fill="none" fill-rule="evenodd">
        <g id="icon-artboard" transform="translate(-145.000000, -352.000000)">
            <g id="Rectangle-28">
                <use fill="#FFFFFF" fill-rule="evenodd" xlink:href="#path-1"></use>
                <rect stroke="#979797" stroke-width="1" x="0.5" y="0.5" width="645" height="2094"></rect>
            </g>
        </g>
        <g id="icon/76x76/clock">
            <rect id="Rectangle-14" fill="#222222" transform="translate(46.316858, 26.122295) rotate(35.000000) translate(-46.316858, -26.122295) " x="42.3168583" y="11.6222954" width="8" height="29" rx="4"></rect>
            <rect id="Rectangle-14" fill="#222222" transform="translate(29.683142, 26.122295) rotate(-35.000000) translate(-29.683142, -26.122295) " x="25.6831417" y="11.6222954" width="8" height="29" rx="4"></rect>
            <rect id="Rectangle-15" fill="#222222" x="35" y="8" width="6" height="13" rx="3"></rect>
            <g id="Oval-2">
                <use fill="#FFFFFF" fill-rule="evenodd" xlink:href="#path-2"></use>
                <circle stroke="#222222" stroke-width="3" cx="38" cy="38" r="22.5"></circle>
            </g>
            <rect id="Rectangle-16" fill="#222222" x="30" y="6" width="16" height="5" rx="2.5"></rect>
            <g id="Group-2" transform="translate(19.000000, 36.000000)" fill="#222222">
                <rect id="Rectangle-18" x="0" y="0" width="5" height="4" rx="2"></rect>
                <rect id="Rectangle-18-Copy" x="33" y="0" width="5" height="4" rx="2"></rect>
            </g>
            <g id="Group-2" transform="translate(38.000000, 38.000000) rotate(-270.000000) translate(-38.000000, -38.000000) translate(19.000000, 36.000000)" fill="#222222">
                <rect id="Rectangle-18" x="0" y="0" width="5" height="4" rx="2"></rect>
                <rect id="Rectangle-18-Copy" x="33" y="-7.10542736e-15" width="5" height="4" rx="2"></rect>
            </g>
            <rect id="Rectangle-17" fill="#222222" transform="translate(43.018480, 32.426414) rotate(42.000000) translate(-43.018480, -32.426414) " x="41.0184795" y="24.9264138" width="4" height="15" rx="2"></rect>
            <g id="Oval-3">
                <use fill="#FFFFFF" fill-rule="evenodd" xlink:href="#path-3"></use>
                <circle stroke="#222222" stroke-width="3" cx="38" cy="38" r="3.5"></circle>
            </g>
        </g>
    </g>
</svg>