<?xml version="1.0" encoding="UTF-8"?>
<svg width="53px" height="40px" viewBox="0 0 53 40" version="1.1" xmlns="http://www.w3.org/2000/svg" xmlns:xlink="http://www.w3.org/1999/xlink">
    <!-- Generator: Sketch 45.2 (43514) - http://www.bohemiancoding.com/sketch -->
    <title>Page 1</title>
    <desc>Created with Sketch.</desc>
    <defs>
        <polygon id="path-1" points="6.50806349 39.3650794 0.22552381 39.3650794 0.22552381 0.115619048 6.50806349 0.115619048 6.50806349 39.3650794"></polygon>
        <polygon id="path-3" points="6.35771429 39.3650794 0.0751746032 39.3650794 0.0751746032 0.115619048 6.35771429 0.115619048"></polygon>
    </defs>
    <g id="sketch-page" stroke="none" stroke-width="1" fill="none" fill-rule="evenodd">
        <g id="Page-1">
            <g id="Group-5" transform="translate(34.285714, 0.519429)">
                <mask id="mask-2" fill="white">
                    <use xlink:href="#path-1"></use>
                </mask>
                <g id="Clip-4"></g>
                <path d="M4.32012698,39.3651429 L2.68266667,39.3651429 C1.32584127,39.3651429 0.22552381,38.2648254 0.22552381,36.908 L0.22552381,2.5727619 C0.22552381,1.21593651 1.32584127,0.115619048 2.68266667,0.115619048 L4.05092063,0.115619048 C5.40774603,0.115619048 6.50806349,1.21593651 6.50806349,2.5727619 L6.50806349,37.1772063 C6.50806349,38.3854603 5.52838095,39.3651429 4.32012698,39.3651429" id="Fill-3" fill="#FABB3D" mask="url(#mask-2)"></path>
            </g>
            <g id="Group-8" transform="translate(11.428571, 0.519429)">
                <mask id="mask-4" fill="white">
                    <use xlink:href="#path-3"></use>
                </mask>
                <g id="Clip-7"></g>
                <path d="M4.16977778,39.3651429 L2.53231746,39.3651429 C1.17549206,39.3651429 0.0751746032,38.2648254 0.0751746032,36.908 L0.0751746032,2.5727619 C0.0751746032,1.21593651 1.17549206,0.115619048 2.53231746,0.115619048 L3.90057143,0.115619048 C5.25739683,0.115619048 6.35771429,1.21593651 6.35771429,2.5727619 L6.35771429,37.1772063 C6.35771429,38.3854603 5.37803175,39.3651429 4.16977778,39.3651429" id="Fill-6" fill="#FABB3D" mask="url(#mask-4)"></path>
            </g>
            <path d="M4.09479365,31.3410794 L2.45733333,31.3410794 C1.10050794,31.3410794 0.000190476191,30.2407619 0.000190476191,28.8839365 L0.000190476191,11.6356825 C0.000190476191,10.2788571 1.10050794,9.17853968 2.45733333,9.17853968 L3.8255873,9.17853968 C5.1824127,9.17853968 6.28273016,10.2788571 6.28273016,11.6356825 L6.28273016,29.1531429 C6.28273016,30.3613968 5.30304762,31.3410794 4.09479365,31.3410794" id="Fill-1" fill="#D39D33"></path>
            <path d="M50.1094603,31.3410794 L48.472,31.3410794 C47.1151746,31.3410794 46.0148571,30.2407619 46.0148571,28.8839365 L46.0148571,11.6356825 C46.0148571,10.2788571 47.1151746,9.17853968 48.472,9.17853968 L49.840254,9.17853968 C51.1970794,9.17853968 52.2973968,10.2788571 52.2973968,11.6356825 L52.2973968,29.1531429 C52.2973968,30.3613968 51.3177143,31.3410794 50.1094603,31.3410794" id="Fill-9" fill="#D39D33"></path>
            <path d="M27.1022857,32.036127 L25.4648254,32.036127 C24.1073651,32.036127 23.0076825,30.9358095 23.0076825,29.5789841 L23.0076825,12.820254 C23.0076825,11.4627937 24.1073651,10.3631111 25.4648254,10.3631111 L26.8330794,10.3631111 C28.1899048,10.3631111 29.2902222,11.4627937 29.2902222,12.820254 L29.2902222,29.8481905 C29.2902222,31.0564444 28.3105397,32.036127 27.1022857,32.036127" id="Fill-11" fill="#D39D33"></path>
        </g>
    </g>
</svg>