<?xml version="1.0" encoding="UTF-8"?>
<svg width="36px" height="32px" viewBox="0 0 36 32" version="1.1" xmlns="http://www.w3.org/2000/svg" xmlns:xlink="http://www.w3.org/1999/xlink">
    <!-- Generator: Sketch 45.2 (43514) - http://www.bohemiancoding.com/sketch -->
    <title>Group 58</title>
    <desc>Created with Sketch.</desc>
    <defs></defs>
    <g id="sketch-page" stroke="none" stroke-width="1" fill="none" fill-rule="evenodd">
        <g id="Group-58" fill="#FABB3D">
            <path d="M8,18 C7.921,18.033 7.925,18.044 7.955,18.044 C7.967,18.044 7.983,18.042 8,18.039 L8,18 Z" id="Fill-1"></path>
            <path d="M20,23 L18,23 L16,23 L16,28 L14,28 C11.791,28 10,29.791 10,32 L26,32 C26,29.791 24.209,28 22,28 L20,28 L20,23 Z" id="Fill-3"></path>
            <path d="M28,18 L28,18.039 C28.017,18.042 28.033,18.044 28.045,18.044 C28.075,18.044 28.079,18.033 28,18" id="Fill-5"></path>
            <path d="M8,14 C4.348,14 4.016,10.928 4,10 L4,8 L8,8 L8,14 Z M28,14 L28,8 L32,8 L32,10 C32,10.668 31.807,14 28,14 L28,14 Z M26,0 L10,0 C8.896,0 8,0.896 8,2 L8,4 L2,4 C0.896,4 0,4.896 0,6 L0,10 C0,13.215 2.131,18 8,18 L8.837,18 C10.381,21.53 13.9,24 18,24 C22.1,24 25.619,21.53 27.162,18 L28,18 C33.869,18 36,13.215 36,10 L36,6 C36,4.896 35.104,4 34,4 L28,4 L28,2 C28,0.896 27.104,0 26,0 L26,0 Z M24,4 L24,8 L24,14 L24,15.248 L23.497,16.397 C22.54,18.586 20.383,20 18,20 C15.617,20 13.459,18.586 12.502,16.397 L12,15.248 L12,14 L12,8 L12,4 L24,4 L24,4 Z" id="Fill-7"></path>
        </g>
    </g>
</svg>