<?xml version="1.0" encoding="UTF-8"?>
<svg width="32px" height="32px" viewBox="0 0 32 32" version="1.1" xmlns="http://www.w3.org/2000/svg" xmlns:xlink="http://www.w3.org/1999/xlink">
    <!-- Generator: Sketch 45.2 (43514) - http://www.bohemiancoding.com/sketch -->
    <title>mobile-icon-login</title>
    <desc>Created with Sketch.</desc>
    <defs></defs>
    <g id="sketch-page" stroke="none" stroke-width="1" fill="none" fill-rule="evenodd">
        <g id="mobile-icon-login" fill="#FABB3D">
            <path d="M28,28 L4,28 L4,23.997 C4,20.789 5.904,18.022 8.637,16.75 C10.465,18.743 13.083,20 16,20 C18.917,20 21.535,18.743 23.362,16.75 C26.097,18.022 28,20.789 28,23.997 L28,28 Z M16,4 C19.309,4 22,6.691 22,10 C22,13.309 19.309,16 16,16 C12.691,16 10,13.309 10,10 C10,6.691 12.691,4 16,4 L16,4 Z M25.429,13.307 L25.429,13.307 C25.792,12.271 26,11.161 26,10 C26,4.477 21.522,0 16,0 C10.477,0 6,4.477 6,10 C6,11.161 6.208,12.271 6.572,13.307 L6.571,13.307 C2.675,15.289 0,19.326 0,23.997 L0,29.997 C0,31.104 0.896,32 2.003,32 L29.997,32 C31.104,32 32,31.104 32,29.997 L32,23.997 C32,19.326 29.325,15.289 25.429,13.307 L25.429,13.307 Z" id="Page-1"></path>
        </g>
    </g>
</svg>