<?xml version="1.0" encoding="UTF-8"?>
<svg width="32px" height="28px" viewBox="0 0 32 28" version="1.1" xmlns="http://www.w3.org/2000/svg" xmlns:xlink="http://www.w3.org/1999/xlink">
    <!-- Generator: Sketch 45.2 (43514) - http://www.bohemiancoding.com/sketch -->
    <title>mobile-icon-trade</title>
    <desc>Created with Sketch.</desc>
    <defs></defs>
    <g id="sketch-page" stroke="none" stroke-width="1" fill="none" fill-rule="evenodd">
        <g id="mobile-icon-trade" transform="translate(0.000000, -2.000000)">
            <rect id="Rectangle-44" x="0" y="0" width="32" height="32"></rect>
            <g id="Group-58" transform="translate(0.000000, 2.000000)" fill="#FABB3D">
                <path d="M14.0254,24.0107 L12.3794,24.0107 C7.6334,23.2347 4.0004,19.1047 4.0004,14.1417 C4.0004,12.4807 4.4274,10.9247 5.1484,9.5447 L6.3764,11.2447 C7.2694,12.4817 9.1964,12.1367 9.6054,10.6667 L10.5834,7.1547 L11.9324,2.3087 C12.2554,1.1477 11.3814,-0.0023 10.1754,-0.0003 L5.4214,0.0067 L1.8204,0.0117 C0.3374,0.0137 -0.5206,1.6947 0.3474,2.8977 L2.6064,6.0257 C0.9704,8.3157 0.0004,11.1127 0.0004,14.1417 C0.0004,21.1417 5.1364,26.9417 11.8454,27.9777 C12.0284,28.0057 12.2064,27.9977 12.3794,27.9757 L12.3794,27.9997 L14.0254,27.9997 C15.1164,27.9997 16.0004,27.1157 16.0004,26.0257 L16.0004,25.9857 C16.0004,24.8957 15.1164,24.0107 14.0254,24.0107" id="Fill-1"></path>
                <path d="M29.3936,21.9746 C31.0296,19.6846 31.9996,16.8866 31.9996,13.8576 C31.9996,6.8586 26.8636,1.0586 20.1546,0.0226 C19.9716,-0.0054 19.7936,0.0016 19.6206,0.0246 L19.6206,-0.0004 L17.9746,-0.0004 C16.8836,-0.0004 15.9996,0.8836 15.9996,1.9746 L15.9996,2.0146 C15.9996,3.1046 16.8836,3.9886 17.9746,3.9886 L19.6206,3.9886 C24.3666,4.7656 27.9996,8.8946 27.9996,13.8576 C27.9996,15.5196 27.5736,17.0766 26.8516,18.4546 L25.6236,16.7546 C24.7306,15.5186 22.8036,15.8636 22.3946,17.3326 L21.4166,20.8456 L20.0686,25.6916 C19.7446,26.8526 20.6196,28.0016 21.8246,27.9996 L26.5786,27.9936 L30.1796,27.9886 C31.6636,27.9866 32.5206,26.3046 31.6526,25.1026 L29.3936,21.9746 Z" id="Fill-4"></path>
            </g>
        </g>
    </g>
</svg>