<?xml version="1.0" encoding="UTF-8"?>
<svg width="76px" height="76px" viewBox="0 0 76 76" version="1.1" xmlns="http://www.w3.org/2000/svg" xmlns:xlink="http://www.w3.org/1999/xlink">
    <!-- Generator: Sketch 45.2 (43514) - http://www.bohemiancoding.com/sketch -->
    <title>icon/76x76/shield</title>
    <desc>Created with Sketch.</desc>
    <defs>
        <rect id="path-1" x="0" y="0" width="646" height="2095"></rect>
    </defs>
    <g id="Symbols" stroke="none" stroke-width="1" fill="none" fill-rule="evenodd">
        <g id="icon-artboard" transform="translate(-288.000000, -352.000000)">
            <g id="Rectangle-28">
                <use fill="#FFFFFF" fill-rule="evenodd" xlink:href="#path-1"></use>
                <rect stroke="#979797" stroke-width="1" x="0.5" y="0.5" width="645" height="2094"></rect>
            </g>
        </g>
        <g id="icon/76x76/shield">
            <g id="Group" transform="translate(18.000000, 14.000000)">
                <path d="M20.5,47.768 C20.221,47.768 19.942,47.692 19.6955,47.5405 L19.5265,47.437 C-0.8945,35.0055 0.15,7.9875 0.205,6.8435 C0.244,6.023 0.921,5.3785 1.741,5.3785 L1.753,5.3785 L2.053,5.3795 C11.6495,5.3795 17.418,1.931 19.4535,0.4485 C19.6675,0.2925 19.9915,0.0565 20.4995,0.0565 C21.009,0.0565 21.3335,0.2925 21.548,0.449 C23.583,1.9315 29.353,5.38 38.947,5.3795 L39.248,5.3785 C40.103,5.368 40.757,6.0195 40.7955,6.8435 C40.85,7.988 41.895,35.0055 21.4695,47.44 L21.3055,47.5405 C21.0575,47.692 20.779,47.768 20.5,47.768 Z M3.2715,8.4385 C3.366,14.031 4.819,34.364 20.5,44.4175 C36.182,34.3605 37.634,14.031 37.7285,8.4385 C28.9185,8.1845 23.156,5.2165 20.5,3.4645 C17.844,5.2165 12.082,8.184 3.2715,8.4385 Z" id="Shape" fill="#222222"></path>
                <path d="M19.4035,37.104 C19.0135,37.104 18.6235,36.9565 18.3235,36.661 C14.277,32.6725 11.2835,27.4715 9.425,21.201 C9.184,20.3865 9.6485,19.53 10.463,19.289 C11.279,19.0485 12.1335,19.512 12.375,20.3265 C14.084,26.093 16.812,30.851 20.4835,34.47 C21.0885,35.0665 21.096,36.0405 20.4995,36.646 C20.198,36.9505 19.801,37.104 19.4035,37.104 Z" id="Shape" fill="#000000"></path>
            </g>
        </g>
    </g>
</svg>