<?xml version="1.0" encoding="UTF-8"?>
<svg width="122px" height="124px" viewBox="0 0 122 124" version="1.1" xmlns="http://www.w3.org/2000/svg" xmlns:xlink="http://www.w3.org/1999/xlink">
    <!-- Generator: Sketch 41.2 (35397) - http://www.bohemiancoding.com/sketch -->
    <title>Icon</title>
    <desc>Created with Sketch.</desc>
    <defs></defs>
    <g id="sketch-page" stroke="none" stroke-width="1" fill="none" fill-rule="evenodd">
        <g id="Group-51" transform="translate(-99.000000, -1179.000000)" fill="#405F8C">
            <g id="Group-53" transform="translate(24.000000, 1131.000000)">
                <g id="Icon" transform="translate(75.000000, 48.000000)">
                    <path d="M108.345455,78.2178017 C107.379221,78.2178017 106.735065,78.8671946 106.735065,79.8412839 L106.735065,86.1728645 C106.735065,87.1469539 107.379221,87.7963467 108.345455,87.7963467 C109.311688,87.7963467 109.955844,87.1469539 109.955844,86.1728645 L109.955844,79.8412839 C109.955844,79.0295428 109.311688,78.2178017 108.345455,78.2178017 Z" id="Shape"></path>
                    <path d="M118.007792,122.051821 L118.007792,48.1833808 C120.101299,46.5598986 121.38961,43.9623271 121.38961,41.0400591 L118.32987,10.84329 L118.32987,1.91413789 C118.32987,0.940048569 117.685714,0.290655686 116.719481,0.290655686 L4.7974026,0.290655686 C3.83116883,0.290655686 3.18701299,0.940048569 3.18701299,1.91413789 L3.18701299,10.6809418 C3.18701299,10.6809418 0.127272727,40.7153627 0.127272727,40.8777109 L0.127272727,41.0400591 C0.127272727,43.7999789 1.25454545,46.2352022 3.18701299,47.8586844 L3.18701299,121.889473 C3.18701299,122.863562 3.83116883,123.512955 4.7974026,123.512955 L116.397403,123.512955 C117.363636,123.675304 118.007792,122.863562 118.007792,122.051821 Z M3.67012987,42.5011931 L14.7818182,42.5011931 C14.1376623,44.9364164 11.8831169,46.8845951 9.14545455,46.8845951 C6.40779221,46.8845951 4.31428571,45.0987646 3.67012987,42.5011931 Z M6.40779221,12.304424 L14.7818182,12.304424 L14.7818182,39.2542287 L3.67012987,39.2542287 L6.40779221,12.304424 Z M118.007792,39.2542287 L106.251948,39.2542287 L106.251948,12.304424 L115.27013,12.304424 L118.007792,39.2542287 Z M112.532468,46.8845951 C109.794805,46.8845951 107.54026,45.0987646 106.896104,42.5011931 L118.007792,42.5011931 C117.363636,45.0987646 115.109091,46.8845951 112.532468,46.8845951 Z M77.425974,42.5011931 L88.5376623,42.5011931 C87.8935065,44.9364164 85.638961,46.8845951 82.9012987,46.8845951 C80.1636364,46.8845951 78.0701299,45.0987646 77.425974,42.5011931 Z M77.2649351,39.2542287 L77.2649351,12.304424 L88.2155844,12.304424 L88.2155844,39.2542287 L77.2649351,39.2542287 Z M74.0441558,39.2542287 L62.4493506,39.2542287 L62.4493506,12.304424 L74.0441558,12.304424 L74.0441558,39.2542287 Z M59.2285714,39.2542287 L47.6337662,39.2542287 L47.6337662,12.304424 L59.2285714,12.304424 L59.2285714,39.2542287 Z M44.412987,39.2542287 L32.8181818,39.2542287 L32.8181818,12.304424 L44.412987,12.304424 L44.412987,39.2542287 Z M59.0675325,42.5011931 C58.4233766,44.9364164 56.1688312,46.8845951 53.4311688,46.8845951 C50.6935065,46.8845951 48.438961,45.0987646 47.7948052,42.5011931 L59.0675325,42.5011931 Z M73.7220779,42.5011931 C73.0779221,44.9364164 70.8233766,46.8845951 68.0857143,46.8845951 C65.3480519,46.8845951 63.0935065,45.0987646 62.4493506,42.5011931 L73.7220779,42.5011931 Z M103.353247,42.5011931 C102.709091,44.9364164 100.454545,46.8845951 97.7168831,46.8845951 C94.9792208,46.8845951 92.7246753,45.0987646 92.0805195,42.5011931 L103.353247,42.5011931 Z M103.031169,39.2542287 L91.4363636,39.2542287 L91.4363636,12.304424 L103.031169,12.304424 L103.031169,39.2542287 Z M91.4363636,9.05745961 L91.4363636,3.69996832 L103.031169,3.69996832 L103.031169,9.05745961 L91.4363636,9.05745961 Z M88.2155844,9.05745961 L77.2649351,9.05745961 L77.2649351,3.69996832 L88.2155844,3.69996832 L88.2155844,9.05745961 Z M74.0441558,9.05745961 L62.4493506,9.05745961 L62.4493506,3.69996832 L74.0441558,3.69996832 L74.0441558,9.05745961 Z M59.2285714,9.05745961 L47.6337662,9.05745961 L47.6337662,3.69996832 L59.2285714,3.69996832 L59.2285714,9.05745961 Z M44.412987,9.05745961 L32.8181818,9.05745961 L32.8181818,3.69996832 L44.412987,3.69996832 L44.412987,9.05745961 Z M29.7584416,9.05745961 L18.0025974,9.05745961 L18.0025974,3.69996832 L29.7584416,3.69996832 L29.7584416,9.05745961 Z M29.7584416,12.304424 L29.7584416,39.2542287 L18.0025974,39.2542287 L18.0025974,12.304424 L29.7584416,12.304424 Z M29.4363636,42.5011931 C28.7922078,44.9364164 26.5376623,46.8845951 23.8,46.8845951 C21.0623377,46.8845951 18.8077922,45.0987646 18.1636364,42.5011931 L29.4363636,42.5011931 Z M44.2519481,42.5011931 C43.6077922,44.9364164 41.3532468,46.8845951 38.6155844,46.8845951 C35.8779221,46.8845951 33.6233766,45.0987646 32.9792208,42.5011931 L44.2519481,42.5011931 Z M46.0233766,46.2352022 C47.6337662,48.6704255 50.3714286,50.1315595 53.4311688,50.1315595 C56.4909091,50.1315595 59.2285714,48.5080773 60.838961,46.2352022 C62.4493506,48.6704255 65.187013,50.1315595 68.2467532,50.1315595 C71.3064935,50.1315595 74.0441558,48.5080773 75.6545455,46.2352022 C76.4597403,47.533988 77.7480519,48.5080773 79.1974026,49.1574702 L79.1974026,90.8809629 L63.4155844,90.8809629 L63.4155844,83.7376412 L71.4675325,83.7376412 C72.4337662,83.7376412 73.0779221,83.0882483 73.0779221,82.114159 C73.0779221,81.1400697 72.4337662,80.4906768 71.4675325,80.4906768 L51.8207792,80.4906768 C50.8545455,80.4906768 50.2103896,81.1400697 50.2103896,82.114159 C50.2103896,83.0882483 50.8545455,83.7376412 51.8207792,83.7376412 L60.0337662,83.7376412 L60.0337662,90.8809629 L44.2519481,90.8809629 L44.2519481,48.3457291 C44.8961039,47.6963362 45.5402597,47.0469433 46.0233766,46.2352022 Z M44.2519481,94.2902756 L79.1974026,94.2902756 L79.1974026,120.428339 L44.2519481,120.428339 L44.2519481,94.2902756 Z M82.2571429,116.69433 L114.787013,116.69433 L114.787013,120.428339 L82.2571429,120.428339 L82.2571429,116.69433 Z M114.787013,113.447366 L82.2571429,113.447366 L82.2571429,50.1315595 L82.9012987,50.1315595 C85.961039,50.1315595 88.6987013,48.5080773 90.3090909,46.2352022 C91.9194805,48.6704255 94.6571429,50.1315595 97.7168831,50.1315595 C100.776623,50.1315595 103.514286,48.5080773 105.124675,46.2352022 C106.735065,48.6704255 109.472727,50.1315595 112.532468,50.1315595 C113.337662,50.1315595 114.142857,49.9692113 114.948052,49.8068631 L114.948052,113.447366 L114.787013,113.447366 Z M115.27013,9.05745961 L106.412987,9.05745961 L106.412987,3.69996832 L115.27013,3.69996832 L115.27013,9.05745961 Z M6.40779221,3.69996832 L14.6207792,3.69996832 L14.6207792,9.05745961 L6.40779221,9.05745961 L6.40779221,3.69996832 Z M9.14545455,50.1315595 C12.2051948,50.1315595 14.9428571,48.5080773 16.5532468,46.2352022 C18.1636364,48.6704255 20.9012987,50.1315595 23.961039,50.1315595 C27.0207792,50.1315595 29.7584416,48.5080773 31.3688312,46.2352022 C32.9792208,48.6704255 35.7168831,50.1315595 38.7766234,50.1315595 C39.5818182,50.1315595 40.387013,49.9692113 41.0311688,49.8068631 L41.0311688,90.8809629 L25.4103896,90.8809629 L25.4103896,83.7376412 L33.6233766,83.7376412 C34.5896104,83.7376412 35.2337662,83.0882483 35.2337662,82.114159 C35.2337662,81.1400697 34.5896104,80.4906768 33.6233766,80.4906768 L13.8155844,80.4906768 C12.8493506,80.4906768 12.2051948,81.1400697 12.2051948,82.114159 C12.2051948,83.0882483 12.8493506,83.7376412 13.8155844,83.7376412 L22.0285714,83.7376412 L22.0285714,90.8809629 L6.40779221,90.8809629 L6.40779221,49.8068631 C7.37402597,49.9692113 8.17922078,50.1315595 9.14545455,50.1315595 Z M6.40779221,94.2902756 L40.8701299,94.2902756 L40.8701299,120.428339 L6.40779221,120.428339 L6.40779221,94.2902756 Z" id="Shape"></path>
                    <path d="M20.5792208,98.6736775 L12.3662338,98.6736775 C11.4,98.6736775 10.7558442,99.3230704 10.7558442,100.29716 L10.7558442,114.9085 C10.7558442,115.882589 11.4,116.531982 12.3662338,116.531982 L20.5792208,116.531982 C21.5454545,116.531982 22.1896104,115.882589 22.1896104,114.9085 L22.1896104,100.29716 C22.1896104,99.4854186 21.3844156,98.6736775 20.5792208,98.6736775 Z M18.9688312,113.447366 L13.9766234,113.447366 L13.9766234,102.08299 L18.9688312,102.08299 L18.9688312,113.447366 Z" id="Shape"></path>
                    <path d="M35.0727273,98.6736775 L26.8597403,98.6736775 C25.8935065,98.6736775 25.2493506,99.3230704 25.2493506,100.29716 L25.2493506,114.9085 C25.2493506,115.882589 25.8935065,116.531982 26.8597403,116.531982 L35.0727273,116.531982 C36.038961,116.531982 36.6831169,115.882589 36.6831169,114.9085 L36.6831169,100.29716 C36.6831169,99.4854186 35.8779221,98.6736775 35.0727273,98.6736775 Z M33.4623377,113.447366 L28.4701299,113.447366 L28.4701299,102.08299 L33.4623377,102.08299 L33.4623377,113.447366 Z" id="Shape"></path>
                    <path d="M58.7454545,98.6736775 L50.5324675,98.6736775 C49.5662338,98.6736775 48.9220779,99.3230704 48.9220779,100.29716 L48.9220779,114.9085 C48.9220779,115.882589 49.5662338,116.531982 50.5324675,116.531982 L58.7454545,116.531982 C59.7116883,116.531982 60.3558442,115.882589 60.3558442,114.9085 L60.3558442,100.29716 C60.3558442,99.4854186 59.5506494,98.6736775 58.7454545,98.6736775 Z M57.1350649,113.447366 L52.1428571,113.447366 L52.1428571,102.08299 L57.1350649,102.08299 L57.1350649,113.447366 Z" id="Shape"></path>
                    <path d="M73.238961,98.6736775 L65.025974,98.6736775 C64.0597403,98.6736775 63.4155844,99.3230704 63.4155844,100.29716 L63.4155844,114.9085 C63.4155844,115.882589 64.0597403,116.531982 65.025974,116.531982 L73.238961,116.531982 C74.2051948,116.531982 74.8493506,115.882589 74.8493506,114.9085 L74.8493506,100.29716 C74.8493506,99.4854186 74.0441558,98.6736775 73.238961,98.6736775 Z M71.6285714,113.447366 L66.6363636,113.447366 L66.6363636,102.08299 L71.6285714,102.08299 L71.6285714,113.447366 Z" id="Shape"></path>
                </g>
            </g>
        </g>
    </g>
</svg>